<?xml version="1.0" standalone="no"?>
<!DOCTYPE svg PUBLIC "-//W3C//DTD SVG 20010904//EN"
 "http://www.w3.org/TR/2001/REC-SVG-20010904/DTD/svg10.dtd">
<svg version="1.0" xmlns="http://www.w3.org/2000/svg"
 width="512.000000pt" height="512.000000pt" viewBox="0 0 512.000000 512.000000"
 preserveAspectRatio="xMidYMid meet">
<metadata>
Created by potrace 1.11, written by Peter Selinger 2001-2013
</metadata>
<g transform="translate(0.000000,512.000000) scale(0.100000,-0.100000)"
fill="#000000" stroke="none">
<path d="M2967 4950 c-92 -23 -178 -96 -219 -185 -20 -44 -23 -64 -22 -175 2
-197 52 -397 147 -585 49 -99 91 -161 227 -340 l107 -140 -29 -61 c-45 -95
-58 -178 -58 -366 l0 -168 -292 -147 -293 -146 -363 -73 c-200 -41 -398 -85
-440 -100 -368 -123 -669 -425 -787 -789 l-26 -80 -220 3 c-154 3 -229 0 -249
-8 -48 -20 -52 -48 -48 -282 5 -242 17 -297 86 -404 108 -165 258 -249 469
-263 l95 -6 125 -226 c89 -161 132 -230 150 -238 34 -16 1472 -16 1507 0 40
18 49 56 44 186 -3 101 -7 126 -29 173 -35 76 -69 112 -134 146 -59 31 -60 32
-26 104 14 31 22 36 76 47 95 19 90 22 104 -59 12 -70 19 -83 183 -329 106
-160 180 -261 195 -268 34 -16 992 -15 1027 0 37 17 49 58 44 147 -10 177
-125 302 -294 319 -54 6 -56 7 -80 54 -24 47 -24 53 -24 300 l0 251 47 52
c110 121 194 280 241 455 24 91 26 111 30 417 l4 320 58 12 c140 29 293 150
359 283 34 70 61 178 61 249 0 122 -61 275 -148 371 -27 31 -124 103 -256 191
-116 77 -215 144 -220 148 -4 5 3 57 18 117 60 257 59 479 -4 718 -53 200
-113 296 -217 347 -58 29 -78 33 -143 33 -135 0 -246 -74 -300 -200 -12 -27
-23 -51 -25 -54 -2 -2 -17 12 -32 30 -79 96 -150 161 -209 190 -68 34 -152 45
-217 29z m138 -165 c72 -29 218 -208 298 -362 69 -135 103 -249 143 -480 19
-114 37 -216 40 -226 10 -32 54 -46 126 -40 82 7 175 -10 242 -44 105 -53 462
-301 508 -352 67 -74 92 -144 93 -256 0 -80 -4 -97 -32 -157 -61 -130 -181
-213 -324 -225 -58 -5 -78 -11 -96 -29 l-23 -23 0 -329 c0 -366 -8 -447 -60
-580 -17 -42 -45 -102 -62 -132 l-33 -55 -3 53 -3 52 -80 0 -79 0 0 -450 0
-450 50 -99 c27 -55 55 -103 62 -108 7 -4 52 -10 100 -13 66 -5 94 -11 115
-26 38 -28 62 -64 69 -101 l7 -33 -220 0 -220 0 -145 217 -144 218 -77 384
c-42 211 -79 386 -81 389 -5 4 -134 -17 -147 -24 -4 -2 11 -90 32 -196 22
-105 39 -199 39 -207 0 -13 -61 -29 -293 -80 -160 -35 -301 -70 -313 -77 -13
-8 -35 -50 -59 -118 l-39 -106 -89 0 -89 0 6 54 c9 70 -9 201 -40 296 -62 187
-208 357 -383 444 -71 36 -190 81 -194 75 -8 -10 -47 -122 -47 -133 0 -7 37
-27 83 -45 161 -63 280 -164 350 -299 59 -112 71 -175 69 -348 -3 -213 -21
-198 246 -204 193 -5 213 -7 238 -26 53 -39 68 -70 72 -144 l4 -70 -658 0
-659 0 -59 111 c-33 61 -88 161 -123 222 -76 135 -123 250 -154 377 -33 138
-34 376 0 504 86 332 293 587 591 730 109 53 168 68 571 150 l364 73 332 166
c182 91 335 172 340 179 4 7 10 119 13 248 6 254 13 288 75 381 43 65 37 82
-82 239 -163 212 -221 297 -264 386 -82 170 -122 330 -123 500 -1 105 0 112
26 146 48 63 122 83 193 53z m733 -12 c42 -31 60 -62 92 -155 53 -157 65 -236
64 -418 -1 -157 -8 -217 -44 -351 l-10 -36 -62 13 c-35 8 -84 14 -109 14 l-45
0 -18 113 c-36 232 -68 349 -137 497 l-33 71 23 72 c39 122 73 172 131 196 37
16 117 7 148 -16z m-2972 -3339 c21 -6 22 -10 17 -107 -8 -145 29 -373 83
-511 7 -18 4 -19 -52 -12 -133 15 -250 99 -312 224 l-37 76 -4 168 -3 168 143
0 c79 0 154 -3 165 -6z m2394 -621 l22 -118 124 -187 124 -188 -103 0 -104 0
-145 218 c-123 185 -146 226 -156 276 -7 33 -10 61 -8 64 4 4 190 49 212 51 7
1 21 -47 34 -116z"/>
<path d="M3855 3346 c-41 -18 -83 -69 -91 -111 -10 -58 4 -103 46 -145 43 -43
87 -56 146 -46 47 9 111 73 120 121 24 129 -103 232 -221 181z"/>
</g>
</svg>
